<svg width="360" height="251" fill="none" xmlns="http://www.w3.org/2000/svg">
    <path d="M135.651 99.9549C135.669 103.475 134.643 106.922 132.702 109.859C130.762 112.797 127.993 115.092 124.748 116.456C121.502 117.82 117.925 118.191 114.469 117.522C111.012 116.853 107.832 115.174 105.33 112.698C102.828 110.221 101.116 107.058 100.412 103.609C99.707 100.16 100.041 96.579 101.372 93.3196C102.702 90.0601 104.969 87.2684 107.886 85.2975C110.803 83.3266 114.239 82.2649 117.76 82.2467C122.474 82.2437 126.999 84.1026 130.35 87.419C133.7 90.7353 135.606 95.2407 135.651 99.9549Z" fill="#C90C0F"/>
    <path d="M118.056 139.692C108.831 139.783 99.8604 136.671 92.6747 130.885C85.4889 125.1 80.5338 116.999 78.655 107.967C76.7761 98.9353 78.0901 89.5312 82.3726 81.36C86.6551 73.1887 93.6406 66.757 102.137 63.1625C110.633 59.568 120.114 59.0335 128.96 61.6503C137.807 64.2671 145.471 69.873 150.645 77.5111C155.818 85.1492 158.181 94.3461 157.329 103.532C156.478 112.718 152.464 121.324 145.974 127.88C138.597 135.356 128.558 139.603 118.056 139.692ZM117.704 71.2755C112.967 71.2812 108.305 72.457 104.131 74.6986C99.9583 76.9401 96.4036 80.1779 93.7832 84.1241C91.1628 88.0704 89.5579 92.6029 89.1111 97.3188C88.6644 102.035 89.3896 106.788 91.2224 111.156C93.0552 115.524 95.9387 119.372 99.6167 122.357C103.295 125.342 107.653 127.373 112.305 128.268C116.957 129.163 121.757 128.895 126.281 127.488C130.804 126.08 134.909 123.578 138.232 120.201C142.202 116.157 144.889 111.03 145.956 105.464C147.023 99.8983 146.423 94.1412 144.23 88.9152C142.038 83.6893 138.35 79.2273 133.631 76.0891C128.912 72.951 123.371 71.2764 117.704 71.2755Z" fill="#E40428"/>
    <path d="M118.184 164.692C103.131 164.848 88.491 159.775 76.7623 150.338C65.0336 140.901 56.9438 127.686 53.8739 112.949C50.804 98.2116 52.9444 82.8655 59.9296 69.5306C66.9149 56.1956 78.3119 45.6985 92.1751 39.8312C106.038 33.9638 121.508 33.0901 135.944 37.359C150.38 41.628 162.886 50.775 171.329 63.2385C179.771 75.7021 183.626 90.7095 182.235 105.699C180.844 120.688 174.294 134.73 163.702 145.428C151.675 157.617 135.308 164.545 118.184 164.692ZM117.593 49.9157C105.899 49.8783 94.5545 53.903 85.4985 61.302C76.4424 68.701 70.2368 79.0151 67.9418 90.482C65.6469 101.949 67.4051 113.857 72.9161 124.171C78.4271 134.486 87.3487 142.566 98.1567 147.032C108.965 151.498 120.988 152.073 132.172 148.657C143.357 145.242 153.008 138.049 159.477 128.306C165.946 118.564 168.832 106.878 167.64 95.2448C166.449 83.6113 161.255 72.7526 152.945 64.524C143.553 55.1765 130.844 49.9248 117.593 49.9157Z" fill="#E40428"/>
    <path d="M135.65 99.8091C135.626 95.0883 133.727 90.5705 130.372 87.2496C127.017 83.9287 122.48 82.0767 117.759 82.101C113.038 82.1253 108.52 84.024 105.199 87.3793C101.878 90.7346 100.026 95.2717 100.051 99.9925L135.65 99.8091Z" fill="#E40428"/>
    <path d="M232.252 174.073L199.712 108.573L199.978 160.08L156.87 141.579L156.437 57.4021L199.351 38.4746L199.618 90.2558L231.867 23.8726L284.675 0.00711292L239.375 99.2101L287.07 197.934L232.252 174.073Z" fill="#C90C0F"/>
    <path d="M239.375 99.2101L284.675 0.00711292L231.867 23.8726L199.618 90.2558L199.351 38.4746L156.437 57.4021L156.654 99.6362L239.375 99.2101Z" fill="#E40428"/>
    <path d="M11.042 250.556L6.63673 242.014H6.39627V250.536H0V227.173C2.18339 227.029 5.05932 227 8.00257 227C13.966 227 17.2844 229.116 17.2844 234.31C17.3135 235.685 16.9208 237.036 16.159 238.182C15.3972 239.327 14.3029 240.211 13.0234 240.716C13.6486 241.678 14.2065 242.515 14.7259 243.419L18.9195 250.556H11.042ZM7.60821 232.281C7.20336 232.283 6.79887 232.305 6.39627 232.348V237.369C6.75335 237.417 7.11319 237.443 7.47355 237.446C9.24335 237.446 10.4553 236.484 10.4553 234.772C10.4553 233.387 9.72426 232.281 7.56973 232.281" fill="#E40428"/>
    <path d="M29.8172 232.713V250.546H23.3728V232.713H18.3135V227.164H34.8765V232.713H29.8172Z" fill="#E40428"/>
    <path d="M50.2761 250.556H42.6967L35.002 227.173H41.9369L45.5053 238.879C45.8804 240.129 46.294 241.447 46.6403 243.034H46.7173C46.9781 241.509 47.3478 240.005 47.8234 238.533L51.286 227.173H57.865L50.2761 250.556Z" fill="#E40428"/>
    <path d="M80.5739 250.546L73.0522 239.321V250.546H68.5508V227.164H73.0522V237.763L80.6412 227.164H86.1141L77.5633 238.456L86.4988 250.546H80.5739Z" fill="#1D1D1B"/>
    <path d="M100.417 250.556L93.9051 240.937H93.7319V250.556H89.2305V227.173C91.0676 227.067 93.251 227.029 95.9634 227.029C101.119 227.029 104.447 228.837 104.447 233.618C104.447 237.08 102.023 239.571 98.4931 240.129C99.1471 240.995 99.8012 241.889 100.417 242.688L106.024 250.556H100.417ZM95.5017 230.703C94.9101 230.699 94.3188 230.734 93.7319 230.809V237.542C94.2723 237.592 94.8148 237.615 95.3575 237.609C98.0602 237.609 99.7242 236.224 99.7242 234.041C99.7242 231.857 98.3392 230.684 95.5017 230.684" fill="#1D1D1B"/>
    <path d="M113.613 227.164H109.111V250.546H113.613V227.164Z" fill="#1D1D1B"/>
    <path d="M140.738 250.556L139.074 239.398C138.727 237.186 138.516 235.445 138.343 233.82H138.275C137.931 235.504 137.5 237.17 136.986 238.811L133.283 250.556H128.82L125.252 239.706C124.597 237.787 124.098 235.819 123.761 233.82H123.694C123.549 235.897 123.309 237.734 123.03 239.783L121.712 250.556H117.144L120.75 227.173H126.002L129.917 239.187C130.46 240.796 130.887 242.441 131.196 244.111H131.263C131.583 242.478 132.024 240.87 132.581 239.302L136.582 227.173H141.815L145.451 250.556H140.738Z" fill="#1D1D1B"/>
    <path d="M155.001 242.38C154.494 242.388 153.987 242.366 153.482 242.313V250.556H148.971V227.173C150.894 227.067 152.962 227.029 155.242 227.029C161.013 227.029 164.149 229.703 164.149 234.272C164.149 238.84 160.686 242.38 155.001 242.38ZM155.069 230.703C154.521 230.703 154.001 230.703 153.482 230.703V238.494C153.915 238.561 154.352 238.597 154.79 238.6C157.56 238.6 159.474 237.042 159.474 234.512C159.474 232.156 158.118 230.665 155.069 230.665" fill="#1D1D1B"/>
    <path d="M167.371 250.546V227.164H180.087V230.944H171.873V236.695H179.663V240.36H171.873V246.708H180.087V250.546H167.371Z" fill="#1D1D1B"/>
    <path d="M197.986 250.556L191.128 238.744C190.166 236.974 189.291 235.243 188.599 233.714C188.743 235.724 188.81 239.398 188.81 242.207V250.556H184.443V227.173H190.301L196.813 238.321C197.88 240.129 198.823 242.063 199.698 243.832C199.525 241.476 199.448 237.321 199.448 234.445V227.173H203.815V250.556H197.986Z" fill="#1D1D1B"/>
    <path d="M209.308 250.546V227.164H222.023V230.944H213.819V236.695H221.61V240.36H213.819V246.708H222.023V250.546H209.308Z" fill="#1D1D1B"/>
    <path d="M237.576 250.556L231.064 240.937H230.891V250.556H226.38V227.173C228.217 227.067 230.4 227.029 233.113 227.029C238.278 227.029 241.596 228.837 241.596 233.618C241.596 237.08 239.172 239.571 235.642 240.129C236.297 240.995 236.96 241.889 237.566 242.688L243.174 250.556H237.576ZM232.651 230.703C232.063 230.698 231.475 230.734 230.891 230.809V237.542C231.431 237.592 231.974 237.615 232.516 237.609C235.219 237.609 236.883 236.224 236.883 234.041C236.883 231.857 235.498 230.684 232.651 230.684" fill="#1D1D1B"/>
    <path d="M269.192 250.556H263.652L260.256 237.667C259.856 236.084 259.555 234.478 259.352 232.858C259.187 234.449 258.898 236.025 258.487 237.571L255.091 250.565H249.859L243.896 227.183H248.705L251.869 240.091C252.254 241.652 252.544 243.236 252.735 244.833C252.942 243.28 253.244 241.741 253.639 240.225L257.207 227.173H262.017L265.614 240.158C266.037 241.648 266.358 243.165 266.576 244.698C266.816 243.072 267.095 241.62 267.441 240.225L270.625 227.173H275.127L269.192 250.556Z" fill="#1D1D1B"/>
    <path d="M290.939 250.556L289.314 245.746H280.484L278.849 250.556H274.318L282.494 227.173H287.592L295.941 250.556H290.939ZM285.957 236.07C285.513 234.849 285.153 233.599 284.879 232.329C284.6 233.541 284.216 234.897 283.764 236.243L281.648 242.207H288.169L285.957 236.07Z" fill="#1D1D1B"/>
    <path d="M313.273 250.556L311.648 245.746H302.818L301.183 250.556H296.652L304.828 227.173H309.916L318.265 250.556H313.273ZM308.291 236.07C307.847 234.849 307.487 233.599 307.213 232.329C306.934 233.541 306.559 234.897 306.107 236.243L303.943 242.207H310.455L308.291 236.07Z" fill="#1D1D1B"/>
    <path d="M331.914 250.556L325.402 240.937H325.229V250.556H320.728V227.173C322.555 227.067 324.738 227.029 327.46 227.029C332.626 227.029 335.944 228.837 335.944 233.618C335.944 237.08 333.53 239.571 329.99 240.129C330.654 240.995 331.308 241.889 331.914 242.688L337.531 250.556H331.914ZM327.028 230.703C326.439 230.698 325.851 230.734 325.267 230.809V237.542C325.808 237.592 326.35 237.615 326.893 237.609C329.596 237.609 331.26 236.224 331.26 234.041C331.26 231.857 329.875 230.684 327.028 230.684" fill="#1D1D1B"/>
    <path d="M347.111 250.671C344.687 250.671 342.571 250.565 340.6 250.498V227.202C342.437 227.135 345.274 227.029 348.15 227.029C355.393 227.029 360 230.251 360 238.465C360 246.497 354.729 250.69 347.111 250.69V250.671ZM347.842 230.809C346.794 230.809 345.832 230.809 345.101 230.915V246.67C345.916 246.79 346.739 246.848 347.563 246.843C351.959 246.843 355.143 244.352 355.143 238.811C355.143 233.791 353.171 230.809 347.842 230.809Z" fill="#1D1D1B"/>
</svg>
