<svg  viewBox="0 0 502 114" fill="none" xmlns="http://www.w3.org/2000/svg">
    <path d="M54.6029 57.0605C54.6029 59.086 54.0023 61.0659 52.877 62.75C51.7517 64.4342 50.1523 65.7468 48.281 66.5219C46.4098 67.297 44.3506 67.4998 42.3641 67.1046C40.3776 66.7095 38.5528 65.7341 37.1206 64.3019C35.6884 62.8697 34.713 61.0449 34.3179 59.0584C33.9227 57.0719 34.1255 55.0127 34.9006 53.1415C35.6758 51.2702 36.9884 49.6708 38.6725 48.5455C40.3566 47.4202 42.3365 46.8196 44.362 46.8196C47.0743 46.8318 49.672 47.9147 51.5899 49.8326C53.5078 51.7505 54.5907 54.3482 54.6029 57.0605Z" fill="#C90C0F"/>
    <path d="M44.3617 79.8698C39.0541 79.8953 33.9021 78.078 29.7852 74.7281C25.6682 71.3782 22.8414 66.7034 21.7872 61.5014C20.7331 56.2995 21.5169 50.893 24.0049 46.2046C26.493 41.5162 30.531 37.8366 35.4298 35.7937C40.3286 33.7509 45.7845 33.4715 50.8663 35.0033C55.9482 36.535 60.3409 39.7829 63.2949 44.1926C66.2488 48.6023 67.5808 53.9005 67.0636 59.1829C66.5463 64.4653 64.2118 69.4045 60.4586 73.1574C56.1922 77.4363 50.404 79.8499 44.3617 79.8698ZM44.3617 40.5075C41.6364 40.4967 38.9506 41.1594 36.543 42.4366C34.1355 43.7138 32.0808 45.5661 30.5615 47.8287C29.0422 50.0913 28.1055 52.6942 27.8345 55.406C27.5635 58.1179 27.9666 60.8547 29.0081 63.3732C30.0496 65.8917 31.6971 68.1139 33.8043 69.8423C35.9115 71.5707 38.4131 72.7518 41.0866 73.2805C43.7602 73.8092 46.523 73.6693 49.1295 72.8731C51.7359 72.0769 54.1053 70.6491 56.027 68.7166C58.323 66.4015 59.8842 63.4598 60.5146 60.2608C61.1451 57.0617 60.8167 53.7477 59.5707 50.7346C58.3246 47.7215 56.2165 45.1435 53.5108 43.3241C50.805 41.5046 47.6222 40.5248 44.3617 40.5075Z" fill="#E40428"/>
    <path d="M44.3616 94.2537C35.7009 94.2988 27.2929 91.3366 20.5731 85.8727C13.8533 80.4088 9.23819 72.7819 7.5157 64.294C5.7932 55.8062 7.07009 46.9836 11.1284 39.3324C15.1867 31.6812 21.7747 25.6757 29.768 22.3412C37.7612 19.0067 46.664 18.5498 54.9565 21.0486C63.2491 23.5474 70.4173 28.847 75.2374 36.0426C80.0576 43.2382 82.2309 51.8837 81.3863 60.5033C80.5417 69.1229 76.7315 77.1821 70.6063 83.3052C63.6507 90.2827 54.2137 94.2195 44.3616 94.2537ZM44.3616 28.2184C37.6338 28.1622 31.0952 30.4441 25.8631 34.6741C20.631 38.904 17.0302 44.8196 15.6759 51.41C14.3216 58.0004 15.2978 64.8565 18.4379 70.807C21.5779 76.7574 26.6868 81.4328 32.8916 84.0342C39.0964 86.6357 46.012 87.0018 52.4568 85.0699C58.9016 83.1381 64.4755 79.0282 68.2262 73.4426C71.9769 67.8569 73.6715 61.1421 73.0206 54.4456C72.3696 47.7491 69.4135 41.4864 64.6573 36.7277C59.2815 31.322 51.9852 28.2629 44.3616 28.2184Z" fill="#E40428"/>
    <path d="M54.6029 56.9767C54.6029 54.2607 53.524 51.6558 51.6034 49.7353C49.6829 47.8148 47.0781 46.7358 44.362 46.7358C41.6459 46.7358 39.0411 47.8148 37.1206 49.7353C35.2 51.6558 34.1211 54.2607 34.1211 56.9767H54.6029Z" fill="#E40428"/>
    <path d="M109.96 99.9886L91.4328 62.2089V91.8424L66.687 81.0708V32.6406L91.4328 21.8783V51.6701L110.183 13.5739L140.636 0L114.279 56.9395L141.427 113.879L109.96 99.9886Z" fill="#C90C0F"/>
    <path d="M114.279 56.9395L140.636 0L110.183 13.5739L91.4328 51.6701V21.8783L66.687 32.6406V56.9395H114.279Z" fill="#E40428"/>
    <path d="M156.528 67.0035L152.264 58.7363H152.031V66.9849H145.84V44.3711C147.953 44.2315 150.737 44.2035 153.586 44.2035C159.358 44.2035 162.57 46.2517 162.57 51.2791C162.598 52.6101 162.218 53.9179 161.48 55.0264C160.743 56.1349 159.684 56.991 158.445 57.4795C159.051 58.4105 159.591 59.2204 160.093 60.0956L164.152 67.0035H156.528ZM153.204 49.3147C152.812 49.3167 152.421 49.3385 152.031 49.3798V54.2396C152.377 54.2867 152.725 54.3116 153.074 54.3141C154.787 54.3141 155.96 53.3831 155.96 51.7259C155.96 50.3853 155.252 49.3147 153.167 49.3147" fill="#E40428"/>
    <path d="M174.701 49.7336V66.9942H168.463V49.7336H163.566V44.3618H179.598V49.7336H174.701Z" fill="#E40428"/>
    <path d="M194.502 67.0035H187.166L179.718 44.3711H186.431L189.885 55.7013C190.248 56.9116 190.648 58.187 190.983 59.7232H191.058C191.31 58.2472 191.668 56.7911 192.128 55.3661L195.48 44.3711H201.848L194.502 67.0035Z" fill="#E40428"/>
    <path d="M223.829 66.9942L216.548 56.1295V66.9942H212.191V44.3618H216.548V54.6213L223.894 44.3618H229.191L220.915 55.2916L229.564 66.9942H223.829Z" fill="#1D1D1B"/>
    <path d="M243.036 67.0035L236.733 57.6936H236.566V67.0035H232.208V44.3711C233.987 44.2687 236.1 44.2315 238.725 44.2315C243.716 44.2315 246.937 45.9817 246.937 50.6088C246.937 53.9603 244.591 56.3716 241.174 56.9116C241.807 57.7495 242.44 58.6153 243.036 59.388L248.464 67.0035H243.036ZM238.279 47.7879C237.706 47.7834 237.134 47.8176 236.566 47.8903V54.4072C237.089 54.4558 237.614 54.4776 238.139 54.4724C240.755 54.4724 242.366 53.1318 242.366 51.0184C242.366 48.9051 241.025 47.7692 238.279 47.7692" fill="#1D1D1B"/>
    <path d="M255.809 44.3618H251.452V66.9942H255.809V44.3618Z" fill="#1D1D1B"/>
    <path d="M282.063 67.0035L280.453 56.204C280.118 54.0628 279.913 52.3777 279.745 50.8043H279.68C279.346 52.435 278.93 54.0477 278.432 55.6361L274.848 67.0035H270.528L267.074 56.502C266.44 54.6448 265.958 52.7394 265.631 50.8043H265.566C265.426 52.8152 265.194 54.5934 264.924 56.5764L263.648 67.0035H259.226L262.717 44.3711H267.801L271.59 55.9992C272.115 57.5566 272.529 59.1496 272.828 60.7659H272.893C273.203 59.1849 273.629 57.629 274.168 56.1109L278.041 44.3711H283.106L286.625 67.0035H282.063Z" fill="#1D1D1B"/>
    <path d="M295.869 59.0901C295.378 59.0983 294.887 59.0765 294.398 59.0249V67.0035H290.032V44.3711C291.894 44.2687 293.895 44.2315 296.102 44.2315C301.688 44.2315 304.723 46.8196 304.723 51.2418C304.723 55.6641 301.371 59.0901 295.869 59.0901ZM295.934 47.7879C295.404 47.7879 294.901 47.7879 294.398 47.7879V55.3289C294.817 55.3939 295.24 55.4281 295.664 55.4313C298.345 55.4313 300.198 53.9231 300.198 51.4746C300.198 49.1937 298.885 47.7506 295.934 47.7506" fill="#1D1D1B"/>
    <path d="M307.842 66.9942V44.3618H320.15V48.0206H312.199V53.5879H319.74V57.135H312.199V63.2795H320.15V66.9942H307.842Z" fill="#1D1D1B"/>
    <path d="M337.475 67.0035L330.837 55.571C329.906 53.8579 329.059 52.1822 328.389 50.7019C328.528 52.6476 328.593 56.204 328.593 58.9225V67.0035H324.367V44.3711H330.036L336.339 55.1613C337.373 56.9116 338.285 58.7829 339.132 60.4959C338.965 58.215 338.89 54.1931 338.89 51.4094V44.3711H343.117V67.0035H337.475Z" fill="#1D1D1B"/>
    <path d="M348.433 66.9942V44.3618H360.741V48.0206H352.799V53.5879H360.34V57.135H352.799V63.2795H360.741V66.9942H348.433Z" fill="#1D1D1B"/>
    <path d="M375.795 67.0035L369.492 57.6936H369.325V67.0035H364.958V44.3711C366.737 44.2687 368.85 44.2315 371.475 44.2315C376.475 44.2315 379.687 45.9817 379.687 50.6088C379.687 53.9603 377.341 56.3716 373.924 56.9116C374.557 57.7495 375.199 58.6153 375.786 59.388L381.214 67.0035H375.795ZM371.029 47.7879C370.459 47.7831 369.89 47.8173 369.325 47.8903V54.4072C369.848 54.4561 370.373 54.4778 370.898 54.4724C373.514 54.4724 375.125 53.1318 375.125 51.0184C375.125 48.9051 373.784 47.7692 371.029 47.7692" fill="#1D1D1B"/>
    <path d="M406.396 67.0035H401.034L397.747 54.5283C397.36 52.9961 397.068 51.4415 396.872 49.8733C396.713 51.4135 396.432 52.9388 396.034 54.4351L392.748 67.0129H387.683L381.911 44.3804H386.566L389.629 56.8744C390.002 58.3857 390.282 59.9185 390.467 61.4641C390.667 59.9611 390.959 58.4718 391.342 57.0047L394.796 44.3711H399.451L402.933 56.9395C403.342 58.3815 403.653 59.8497 403.864 61.3338C404.097 59.7604 404.367 58.3546 404.702 57.0047L407.783 44.3711H412.14L406.396 67.0035Z" fill="#1D1D1B"/>
    <path d="M427.446 67.0035L425.873 62.3486H417.326L415.743 67.0035H411.358L419.272 44.3711H424.206L432.287 67.0035H427.446ZM422.623 52.9828C422.194 51.8007 421.846 50.5907 421.581 49.3612C421.311 50.5343 420.938 51.847 420.501 53.1504L418.453 58.9225H424.765L422.623 52.9828Z" fill="#1D1D1B"/>
    <path d="M449.064 67.0035L447.491 62.3486H438.944L437.362 67.0035H432.977L440.89 44.3711H445.815L453.896 67.0035H449.064ZM444.242 52.9828C443.812 51.8007 443.464 50.5907 443.199 49.3612C442.929 50.5343 442.566 51.847 442.128 53.1504L440.033 58.9225H446.336L444.242 52.9828Z" fill="#1D1D1B"/>
    <path d="M467.107 67.0035L460.804 57.6936H460.637V67.0035H456.28V44.3711C458.049 44.2687 460.162 44.2315 462.797 44.2315C467.796 44.2315 471.008 45.9817 471.008 50.6088C471.008 53.9603 468.671 56.3716 465.245 56.9116C465.888 57.7495 466.521 58.6153 467.107 59.388L472.544 67.0035H467.107ZM462.378 47.7879C461.808 47.7834 461.239 47.8176 460.674 47.8903V54.4072C461.197 54.4561 461.722 54.4778 462.247 54.4724C464.864 54.4724 466.474 53.1318 466.474 51.0184C466.474 48.9051 465.134 47.7692 462.378 47.7692" fill="#1D1D1B"/>
    <path d="M481.817 67.1153C479.47 67.1153 477.422 67.0129 475.514 66.9477V44.3991C477.292 44.3339 480.038 44.2315 482.822 44.2315C489.832 44.2315 494.292 47.3503 494.292 55.301C494.292 63.0748 489.19 67.1339 481.817 67.1339V67.1153ZM482.524 47.8903C481.509 47.8903 480.578 47.8903 479.871 47.9927V63.2423C480.66 63.3589 481.456 63.4149 482.254 63.4099C486.509 63.4099 489.59 60.9986 489.59 55.6361C489.59 50.7764 487.682 47.8903 482.524 47.8903Z" fill="#1D1D1B"/>
</svg>
