<svg width="90" height="76" viewBox="0 0 90 76" fill="none" xmlns="http://www.w3.org/2000/svg">
    <path d="M31.8261 38.0283C31.833 39.3677 31.4425 40.6792 30.7041 41.7967C29.9657 42.9143 28.9124 43.7877 27.6776 44.3067C26.4427 44.8257 25.0817 44.9668 23.7667 44.7123C22.4516 44.4577 21.2416 43.8189 20.2895 42.8767C19.3375 41.9344 18.6863 40.731 18.4182 39.4186C18.1501 38.1063 18.2772 36.7439 18.7835 35.5037C19.2897 34.2636 20.1523 33.2014 21.2621 32.4515C22.372 31.7016 23.6793 31.2977 25.0188 31.2908C26.8125 31.2897 28.5341 31.9969 29.8089 33.2587C31.0838 34.5205 31.8087 36.2347 31.8261 38.0283Z" fill="#C90C0F"/>
    <path d="M25.1309 53.1456C21.6212 53.1805 18.2083 51.9964 15.4745 49.7952C12.7407 47.5941 10.8555 44.5124 10.1407 41.0762C9.42588 37.6399 9.92578 34.0621 11.555 30.9534C13.1843 27.8447 15.842 25.3977 19.0744 24.0302C22.3068 22.6627 25.9136 22.4593 29.2793 23.4549C32.6449 24.4505 35.5608 26.5832 37.5291 29.4891C39.4974 32.395 40.3963 35.894 40.0722 39.3888C39.7482 42.8836 38.2213 46.1576 35.7522 48.6521C32.9456 51.496 29.1264 53.1118 25.1309 53.1456ZM24.9968 27.1168C23.1946 27.1189 21.4208 27.5663 19.8332 28.4191C18.2455 29.2719 16.8931 30.5037 15.8962 32.005C14.8993 33.5064 14.2887 35.2308 14.1187 37.0249C13.9488 38.8191 14.2247 40.6275 14.9219 42.2893C15.6192 43.9511 16.7162 45.415 18.1155 46.5507C19.5148 47.6865 21.173 48.4589 22.9427 48.7995C24.7125 49.14 26.5389 49.038 28.2598 48.5026C29.9806 47.9673 31.5425 47.015 32.8067 45.7306C34.3171 44.1919 35.3394 42.2414 35.7454 40.1238C36.1513 38.0063 35.9229 35.816 35.0887 33.8278C34.2545 31.8396 32.8517 30.142 31.0563 28.9481C29.2609 27.7542 27.1529 27.1171 24.9968 27.1168Z" fill="#E40428"/>
    <path d="M25.1799 62.6581C19.4531 62.7175 13.8831 60.7873 9.42096 57.1971C4.95879 53.607 1.88104 48.5793 0.713106 42.9725C-0.454826 37.3657 0.359473 31.5273 3.017 26.454C5.67452 21.3808 10.0105 17.3872 15.2847 15.1549C20.559 12.9227 26.4445 12.5903 31.9366 14.2144C37.4286 15.8385 42.1867 19.3185 45.3986 24.0602C48.6105 28.802 50.0771 34.5115 49.5479 40.2142C49.0188 45.9169 46.5267 51.2591 42.4972 55.3289C37.9216 59.9665 31.6946 62.602 25.1799 62.6581ZM24.955 18.9916C20.5059 18.9774 16.19 20.5085 12.7446 23.3235C9.29927 26.1384 6.93834 30.0624 6.06524 34.425C5.19213 38.7876 5.86105 43.318 7.95769 47.242C10.0543 51.1661 13.4486 54.2404 17.5604 55.9395C21.6723 57.6386 26.2466 57.8571 30.5017 56.5577C34.7568 55.2583 38.4286 52.5216 40.8898 48.8153C43.3509 45.1089 44.4487 40.6629 43.9954 36.237C43.5421 31.811 41.566 27.6798 38.4047 24.5493C34.8315 20.993 29.9963 18.995 24.955 18.9916Z" fill="#E40428"/>
    <path d="M31.8258 37.9729C31.8166 36.1767 31.0942 34.4578 29.8176 33.1943C28.541 31.9308 26.8147 31.2261 25.0185 31.2354C23.2224 31.2446 21.5035 31.967 20.24 33.2436C18.9764 34.5202 18.2718 36.2465 18.281 38.0427L31.8258 37.9729Z" fill="#E40428"/>
    <path d="M68.5767 66.2258L56.197 41.3067L56.2979 60.9021L39.8978 53.8636L39.7328 21.8386L56.0596 14.6376L56.1611 34.3377L68.4301 9.08234L88.521 0.00272926L71.2866 37.7444L89.4323 75.3037L68.5767 66.2258Z" fill="#C90C0F"/>
    <path d="M71.2866 37.7444L88.521 0.00272926L68.4301 9.08234L56.1611 34.3377L56.0596 14.6376L39.7328 21.8386L39.8156 37.9065L71.2866 37.7444Z" fill="#E40428"/>
</svg>
